<?xml version="1.0" standalone="no"?>
<!DOCTYPE svg PUBLIC "-//W3C//DTD SVG 20010904//EN"
 "http://www.w3.org/TR/2001/REC-SVG-20010904/DTD/svg10.dtd">
<svg version="1.0" xmlns="http://www.w3.org/2000/svg"
 width="96.000000pt" height="96.000000pt" viewBox="0 0 96.000000 96.000000"
 preserveAspectRatio="xMidYMid meet">

<g transform="translate(0.000000,96.000000) scale(0.100000,-0.100000)"
fill="#000000" stroke="none">
<path d="M380 871 c-206 -109 -255 -139 -274 -165 -20 -26 -21 -41 -21 -226 0
-184 1 -201 21 -227 11 -15 89 -70 174 -120 207 -125 194 -125 411 6 134 81
166 104 177 131 10 24 12 82 10 222 l-3 190 -28 24 c-56 48 -317 196 -355 201
-30 4 -52 -4 -112 -36z m153 -17 c18 -9 88 -50 157 -91 152 -91 184 -122 118
-116 -25 3 -64 -14 -168 -70 -184 -100 -180 -93 -180 -306 0 -117 4 -171 12
-179 9 -9 7 -12 -8 -12 -35 0 -318 175 -332 205 -8 17 -12 86 -12 200 l0 175
27 29 c34 36 299 181 331 181 13 0 37 -7 55 -16z m47 -434 c0 -5 7 -10 15 -10
25 0 17 -28 -12 -42 -33 -15 -37 -41 -8 -46 48 -9 59 -51 25 -95 -11 -14 -20
-32 -20 -40 0 -9 -4 -19 -10 -22 -5 -3 -10 1 -10 10 0 12 -6 15 -20 10 -33
-11 -24 25 9 36 44 16 53 59 12 59 -42 0 -54 51 -21 93 11 14 20 32 20 41 0 9
5 16 10 16 6 0 10 -4 10 -10z m160 -143 c0 -12 -12 -21 -62 -45 -5 -2 -8 1 -8
6 0 6 15 19 33 30 40 25 37 25 37 9z"/>
</g>
</svg>
