<?xml version="1.0" standalone="no"?>
<!DOCTYPE svg PUBLIC "-//W3C//DTD SVG 20010904//EN"
 "http://www.w3.org/TR/2001/REC-SVG-20010904/DTD/svg10.dtd">
<svg version="1.0" xmlns="http://www.w3.org/2000/svg"
 width="96.000000pt" height="96.000000pt" viewBox="0 0 96.000000 96.000000"
 preserveAspectRatio="xMidYMid meet">

<g transform="translate(0.000000,96.000000) scale(0.100000,-0.100000)"
fill="#000000" stroke="none">
<path d="M440 827 c-37 -18 -50 -54 -48 -122 3 -66 21 -83 22 -20 1 48 31 63
42 21 8 -35 30 -33 38 4 4 21 11 30 25 30 27 0 34 -15 37 -75 2 -30 16 -83 37
-132 19 -45 38 -103 42 -129 7 -48 7 -48 21 -24 17 32 17 48 -1 85 l-15 30 20
-24 c29 -34 25 -131 -6 -131 -20 0 -17 -39 3 -47 10 -4 23 2 34 15 9 12 22 22
28 22 15 0 24 44 17 83 -3 18 -22 58 -41 88 -60 95 -85 152 -85 197 0 108 -85
172 -170 129z"/>
<path d="M420 690 c0 -13 5 -20 13 -17 6 2 12 10 12 17 0 7 -6 15 -12 18 -8 2
-13 -5 -13 -18z"/>
<path d="M503 694 c-7 -18 17 -38 31 -24 11 11 1 40 -14 40 -6 0 -13 -7 -17
-16z"/>
<path d="M387 589 c-10 -19 -34 -59 -53 -89 -19 -30 -40 -72 -46 -92 -10 -35
-9 -39 15 -58 27 -22 117 -158 117 -178 0 -8 26 -12 80 -12 78 0 80 1 80 24 0
13 3 32 6 41 6 14 1 13 -27 -4 -37 -23 -98 -27 -130 -11 -14 8 -18 17 -13 34
4 19 -4 31 -45 67 -59 49 -68 72 -47 120 l15 34 -3 -30 c-2 -16 -1 -23 1 -15
3 8 21 43 40 77 24 43 33 72 31 94 l-3 32 -18 -34z"/>
</g>
</svg>
