<?xml version="1.0" standalone="no"?>
<!DOCTYPE svg PUBLIC "-//W3C//DTD SVG 20010904//EN"
 "http://www.w3.org/TR/2001/REC-SVG-20010904/DTD/svg10.dtd">
<svg version="1.0" xmlns="http://www.w3.org/2000/svg"
 width="512.000000pt" height="512.000000pt" viewBox="0 0 512.000000 512.000000"
 preserveAspectRatio="xMidYMid meet">

<g transform="translate(0.000000,512.000000) scale(0.100000,-0.100000)"
fill="#000000" stroke="none">
<path d="M881 5104 c-169 -45 -295 -176 -330 -342 -16 -75 -16 -4329 0 -4404
36 -168 162 -298 334 -343 52 -13 256 -15 1671 -15 1047 0 1630 4 1665 10 162
31 307 170 343 330 14 61 16 302 16 2220 0 1918 -2 2159 -16 2220 -36 160
-181 299 -343 330 -35 6 -617 10 -1670 9 -1378 0 -1624 -2 -1670 -15z m3381
-152 c60 -30 119 -89 149 -150 l24 -47 0 -2195 0 -2195 -24 -47 c-30 -61 -89
-120 -149 -150 l-47 -23 -1650 0 -1650 0 -57 28 c-65 32 -121 89 -152 156
l-21 46 -3 2165 c-2 2375 -6 2220 57 2307 39 54 91 93 154 115 49 17 138 17
1687 15 l1635 -2 47 -23z"/>
<path d="M962 4729 c-26 -13 -55 -39 -70 -62 l-27 -41 -3 -555 c-2 -490 -1
-561 13 -598 20 -51 71 -98 122 -113 27 -8 491 -10 1593 -8 l1555 3 38 24 c21
13 50 42 65 64 l27 41 3 556 3 556 -24 44 c-13 25 -43 59 -66 75 l-43 30
-1571 3 -1572 2 -43 -21z m3150 -136 c17 -15 18 -45 18 -537 0 -456 -2 -524
-16 -544 l-15 -22 -1534 0 c-1381 0 -1535 2 -1549 16 -14 14 -16 77 -16 548 0
400 3 535 12 544 9 9 366 12 1547 12 1414 0 1536 -1 1553 -17z"/>
<path d="M3530 4411 c-75 -23 -141 -80 -171 -146 -25 -55 -27 -347 -3 -418 18
-54 73 -115 129 -142 63 -31 167 -28 227 7 59 35 103 89 124 150 12 38 15 82
12 216 -3 161 -4 169 -30 213 -58 99 -184 151 -288 120z m117 -151 c51 -31 55
-46 51 -220 -3 -152 -4 -160 -27 -184 -48 -51 -135 -42 -172 18 -16 27 -19 52
-19 174 0 157 9 190 58 216 37 21 71 20 109 -4z"/>
<path d="M1162 3089 c-45 -13 -108 -79 -121 -126 -6 -22 -11 -136 -11 -266 0
-243 5 -273 53 -326 51 -55 81 -61 342 -61 267 0 294 6 348 69 44 53 49 87 45
346 -3 232 -4 241 -27 278 -13 21 -42 50 -64 65 l-40 27 -246 2 c-138 1 -260
-2 -279 -8z m502 -151 c24 -34 23 -443 -1 -470 -15 -16 -36 -18 -232 -18 -180
0 -220 3 -239 16 -22 15 -22 19 -22 232 0 181 3 221 16 240 15 22 19 22 239
22 220 0 224 0 239 -22z"/>
<path d="M2302 3089 c-45 -13 -108 -79 -121 -126 -6 -22 -11 -136 -11 -266 0
-243 5 -273 53 -326 51 -55 81 -61 342 -61 211 0 245 3 280 19 51 23 102 81
110 123 4 19 5 141 3 273 -3 232 -4 241 -27 278 -13 21 -42 50 -64 65 l-40 27
-246 2 c-138 1 -260 -2 -279 -8z m502 -151 c13 -19 16 -59 16 -240 0 -213 0
-217 -22 -232 -19 -13 -59 -16 -233 -16 -174 0 -214 3 -233 16 -22 15 -22 19
-22 232 0 181 3 221 16 240 15 22 19 22 239 22 220 0 224 0 239 -22z"/>
<path d="M3425 3082 c-50 -23 -101 -80 -115 -129 -8 -25 -10 -119 -8 -274 l3
-236 27 -40 c15 -22 44 -51 65 -64 37 -23 45 -24 283 -27 268 -4 299 0 355 49
61 54 67 84 63 360 -3 237 -4 245 -27 282 -13 21 -42 50 -64 65 l-40 27 -251
3 c-227 2 -255 0 -291 -16z m519 -144 c13 -19 16 -59 16 -240 0 -213 0 -217
-22 -232 -19 -13 -59 -16 -240 -16 -205 0 -219 1 -238 20 -19 19 -20 33 -20
235 0 202 1 216 20 235 19 19 33 20 244 20 221 0 225 0 240 -22z"/>
<path d="M1145 2121 c-49 -22 -91 -69 -105 -119 -8 -24 -10 -122 -8 -278 l3
-241 27 -40 c15 -22 44 -51 65 -64 37 -24 42 -24 298 -24 256 0 261 0 298 24
21 13 50 42 65 64 l27 40 3 241 c4 260 -1 294 -45 347 -54 63 -81 69 -348 69
-211 0 -245 -3 -280 -19z m517 -138 c16 -15 18 -36 18 -232 0 -180 -3 -220
-16 -239 -15 -22 -19 -22 -239 -22 -220 0 -224 0 -239 22 -13 19 -16 59 -16
240 0 213 0 217 22 232 34 24 443 23 470 -1z"/>
<path d="M2285 2121 c-49 -22 -91 -69 -105 -119 -8 -24 -10 -122 -8 -278 l3
-241 27 -40 c15 -22 44 -51 65 -64 37 -23 46 -24 275 -27 255 -4 297 2 348 45
66 55 70 76 70 343 0 257 -5 286 -53 339 -51 55 -81 61 -342 61 -211 0 -245
-3 -280 -19z m513 -137 c22 -15 22 -19 22 -232 0 -181 -3 -221 -16 -240 -15
-22 -19 -22 -239 -22 -220 0 -224 0 -239 22 -13 19 -16 59 -16 240 0 213 0
217 22 232 19 13 59 16 233 16 174 0 214 -3 233 -16z"/>
<path d="M3432 2129 c-44 -13 -108 -79 -121 -126 -7 -25 -11 -277 -11 -743 0
-790 -3 -750 73 -817 58 -51 87 -55 352 -51 232 3 241 4 278 27 21 13 50 42
65 64 l27 41 3 720 c2 495 0 733 -8 758 -14 50 -56 97 -105 119 -35 16 -68 18
-280 18 -132 0 -255 -5 -273 -10z m506 -145 l22 -15 0 -697 c0 -615 -2 -700
-16 -720 -15 -22 -19 -22 -240 -22 -211 0 -225 1 -244 20 -20 20 -20 33 -20
715 0 682 0 695 20 715 19 19 33 20 238 20 181 0 221 -3 240 -16z"/>
<path d="M3565 1465 c-14 -13 -25 -33 -25 -45 0 -11 11 -32 25 -45 23 -24 30
-25 143 -25 111 0 120 1 140 23 28 30 28 68 -1 95 -21 20 -34 22 -141 22 -111
0 -118 -1 -141 -25z"/>
<path d="M3565 1165 c-14 -13 -25 -33 -25 -45 0 -11 11 -32 25 -45 23 -24 30
-25 143 -25 111 0 120 1 140 23 28 30 28 68 -1 95 -21 20 -34 22 -141 22 -111
0 -118 -1 -141 -25z"/>
<path d="M1162 1179 c-47 -14 -109 -80 -122 -129 -7 -27 -10 -127 -8 -284 l3
-243 27 -40 c15 -22 44 -51 65 -64 37 -24 42 -24 298 -24 256 0 261 0 298 24
21 13 50 42 65 64 l27 41 0 265 c0 263 0 266 -24 304 -13 21 -42 50 -64 65
l-40 27 -246 2 c-138 1 -260 -2 -279 -8z m502 -151 c13 -19 16 -59 16 -238 0
-179 -3 -219 -16 -238 -15 -22 -19 -22 -239 -22 -220 0 -224 0 -239 22 -13 19
-16 59 -16 238 0 179 3 219 16 238 15 22 19 22 239 22 220 0 224 0 239 -22z"/>
<path d="M2302 1179 c-47 -14 -109 -80 -122 -129 -7 -27 -10 -127 -8 -284 l3
-243 27 -40 c15 -22 44 -51 65 -64 37 -23 46 -24 275 -27 149 -2 251 1 277 8
51 13 96 51 122 102 19 37 20 55 17 296 -3 250 -4 258 -27 295 -13 21 -42 50
-64 65 l-40 27 -246 2 c-138 1 -260 -2 -279 -8z m502 -151 c13 -19 16 -59 16
-238 0 -179 -3 -219 -16 -238 -15 -22 -19 -22 -239 -22 -220 0 -224 0 -239 22
-13 19 -16 59 -16 238 0 179 3 219 16 238 15 22 19 22 239 22 220 0 224 0 239
-22z"/>
</g>
</svg>
