<?xml version="1.0" standalone="no"?>
<!DOCTYPE svg PUBLIC "-//W3C//DTD SVG 20010904//EN"
 "http://www.w3.org/TR/2001/REC-SVG-20010904/DTD/svg10.dtd">
<svg version="1.0" xmlns="http://www.w3.org/2000/svg"
 width="512.000000pt" height="512.000000pt" viewBox="0 0 512.000000 512.000000"
 preserveAspectRatio="xMidYMid meet">

<g transform="translate(0.000000,512.000000) scale(0.100000,-0.100000)"
fill="#000000" stroke="none">
<path d="M495 4931 c-53 -33 -313 -304 -320 -334 -6 -23 21 -78 180 -365 102
-185 194 -345 203 -354 11 -10 82 -29 197 -52 l180 -36 538 -538 c295 -295
537 -541 537 -547 0 -6 -148 -158 -328 -338 l-329 -329 -174 -14 c-96 -8 -208
-21 -249 -30 -379 -82 -682 -401 -745 -785 -9 -56 -15 -159 -15 -252 0 -154 1
-158 25 -182 16 -17 35 -25 57 -25 30 0 58 25 285 252 l253 253 240 -240 240
-240 -252 -252 c-235 -235 -252 -255 -252 -288 0 -23 8 -43 22 -58 22 -21 29
-22 205 -21 100 1 209 7 242 13 374 74 656 330 760 688 19 63 30 142 42 278
l16 190 246 247 c135 136 249 244 253 240 4 -4 17 -55 29 -112 12 -58 32 -127
46 -155 19 -39 169 -195 656 -682 719 -720 691 -697 837 -698 139 0 146 5 496
357 339 341 339 341 339 478 -1 144 29 107 -684 822 -503 505 -646 643 -690
667 -33 17 -99 38 -161 50 -57 12 -108 25 -112 29 -4 4 104 118 240 253 l247
246 190 16 c137 12 215 23 279 42 358 104 613 387 687 760 6 33 12 141 13 242
1 176 0 183 -21 205 -15 14 -35 22 -58 22 -33 0 -53 -17 -288 -252 l-252 -252
-240 240 -240 240 253 253 c227 227 252 255 252 285 0 22 -9 41 -26 59 l-26
25 -201 -5 c-134 -3 -223 -11 -265 -21 -367 -93 -649 -379 -726 -736 -9 -41
-22 -153 -30 -249 l-14 -174 -329 -329 c-180 -180 -332 -328 -338 -328 -6 0
-252 242 -547 538 l-538 537 -36 180 c-23 115 -42 186 -52 197 -23 23 -683
388 -702 388 -8 0 -28 -9 -45 -19z m3595 -148 c0 -4 -95 -103 -211 -220 -206
-206 -212 -213 -205 -245 5 -26 69 -95 319 -345 304 -304 314 -313 352 -313
37 0 47 8 248 208 l209 207 -5 -96 c-15 -278 -206 -546 -472 -664 -90 -40
-203 -62 -370 -75 -263 -18 -206 13 -480 -261 -132 -131 -243 -239 -247 -239
-3 0 -9 19 -12 43 -10 66 -51 142 -108 203 -64 68 -112 94 -173 94 -64 0 -108
-26 -200 -119 -44 -45 -84 -81 -90 -81 -6 0 -35 25 -65 55 l-54 55 357 358
c229 230 357 365 357 377 0 84 34 399 51 462 65 255 266 473 514 558 96 33
285 58 285 38z m-3225 -188 c127 -70 235 -132 241 -139 6 -6 26 -85 43 -176
l32 -165 677 -677 677 -678 -88 -87 -87 -88 -678 677 -677 677 -170 34 -170
34 -157 279 -156 279 101 102 100 102 41 -24 c23 -13 145 -80 271 -150z m2127
-1723 c49 -52 58 -75 83 -202 20 -99 42 -146 90 -195 56 -56 88 -68 280 -105
l60 -12 634 -631 c365 -365 639 -646 647 -664 19 -45 18 -89 -6 -137 -27 -57
-542 -570 -592 -591 -46 -19 -89 -19 -131 -1 -18 8 -298 281 -664 647 l-631
634 -12 60 c-37 192 -49 224 -105 280 -49 48 -96 70 -195 90 -47 9 -100 21
-119 27 -36 11 -131 92 -131 112 0 14 722 736 736 736 6 0 31 -22 56 -48z
m-799 -340 l57 -58 -86 -84 c-98 -97 -124 -140 -124 -205 0 -61 26 -109 94
-173 61 -57 137 -98 203 -108 24 -3 43 -9 43 -12 0 -4 -108 -115 -239 -247
-274 -274 -243 -217 -261 -480 -13 -167 -35 -280 -75 -370 -86 -193 -258 -354
-456 -429 -68 -25 -146 -41 -253 -50 l-59 -5 211 213 c204 204 212 214 212
251 0 38 -9 48 -312 352 -251 250 -320 314 -346 319 -32 7 -39 1 -245 -205
-117 -116 -216 -211 -220 -211 -10 0 -9 64 3 140 51 320 279 575 590 659 45
12 154 27 270 36 107 9 202 18 210 20 8 3 172 162 365 355 192 192 352 350
355 350 3 0 31 -26 63 -58z"/>
<path d="M3425 1985 c-17 -16 -25 -35 -25 -57 0 -30 42 -75 488 -520 435 -436
491 -488 519 -488 40 0 71 27 79 68 7 34 2 39 -487 528 -536 536 -521 523
-574 469z"/>
<path d="M3135 1695 c-54 -53 -67 -38 469 -574 489 -489 494 -494 528 -487 41
8 68 39 68 79 0 28 -52 84 -488 519 -445 446 -490 488 -520 488 -22 0 -41 -8
-57 -25z"/>
</g>
</svg>
