<?xml version="1.0" standalone="no"?>
<!DOCTYPE svg PUBLIC "-//W3C//DTD SVG 20010904//EN"
 "http://www.w3.org/TR/2001/REC-SVG-20010904/DTD/svg10.dtd">
<svg version="1.0" xmlns="http://www.w3.org/2000/svg"
 width="512.000000pt" height="512.000000pt" viewBox="0 0 512.000000 512.000000"
 preserveAspectRatio="xMidYMid meet">

<g transform="translate(0.000000,512.000000) scale(0.100000,-0.100000)"
fill="#000000" stroke="none">
<path d="M2110 5110 c-235 -12 -508 -36 -720 -65 -162 -22 -177 -26 -198 -50
-27 -32 -28 -55 -1 -89 25 -31 60 -33 209 -11 55 8 194 24 308 35 1103 104
2386 -10 2889 -256 96 -48 173 -115 173 -154 0 -52 -130 -143 -293 -204 -196
-74 -566 -151 -917 -190 -586 -66 -1415 -66 -2000 0 -443 49 -816 136 -1026
238 -116 57 -184 115 -184 158 0 36 89 112 182 156 82 39 293 112 324 112 22
0 74 54 74 78 0 11 -10 32 -22 47 -20 25 -26 27 -72 22 -68 -7 -249 -68 -361
-122 -102 -48 -167 -93 -213 -146 -67 -77 -62 94 -62 -2111 1 -1875 2 -2005
18 -2040 68 -144 288 -259 677 -353 789 -191 2088 -219 3010 -65 568 95 914
240 996 415 18 39 19 109 19 2044 l0 2004 -22 44 c-118 237 -687 409 -1600
483 -289 24 -900 34 -1188 20z m-1492 -944 c920 -318 2889 -326 3836 -15 81
27 186 69 232 93 l84 45 0 -546 c0 -627 9 -572 -103 -644 -270 -175 -997 -306
-1825 -328 -1048 -29 -2050 109 -2389 328 -112 72 -103 17 -103 644 l0 546 83
-44 c45 -24 128 -59 185 -79z m-211 -1215 c227 -139 789 -260 1448 -311 487
-38 1204 -27 1690 26 518 56 978 168 1168 285 26 16 49 29 52 29 3 0 5 -247 5
-550 l0 -550 -38 -38 c-141 -141 -619 -273 -1222 -336 -329 -35 -462 -41 -950
-41 -488 0 -621 6 -950 41 -603 63 -1081 195 -1222 336 l-38 38 0 550 c0 303
2 550 5 550 3 0 26 -13 52 -29z m15 -1315 c270 -147 784 -254 1488 -308 221
-17 1080 -17 1300 0 706 55 1219 161 1488 308 34 19 65 34 67 34 3 0 5 -245 5
-545 l0 -545 -34 -37 c-143 -158 -674 -296 -1366 -357 -1019 -90 -2171 0
-2735 213 -129 49 -204 92 -251 144 l-34 37 0 545 c0 300 2 545 5 545 2 0 33
-15 67 -34z"/>
<path d="M3848 3741 c-189 -76 -250 -310 -122 -460 58 -67 113 -94 205 -99 74
-4 84 -2 144 27 174 86 219 305 91 448 -58 64 -121 95 -205 100 -49 2 -78 -2
-113 -16z m170 -151 c123 -75 76 -260 -67 -260 -84 0 -141 56 -141 140 0 108
117 175 208 120z"/>
<path d="M910 3557 c-46 -23 -53 -104 -10 -127 52 -28 454 -95 740 -124 413
-42 1100 -54 1500 -27 222 15 240 22 240 88 0 21 -8 40 -22 54 -21 19 -30 21
-105 15 -614 -45 -1365 -23 -1893 55 -123 19 -373 64 -410 74 -8 3 -26 -1 -40
-8z"/>
<path d="M3848 2451 c-189 -76 -250 -310 -122 -460 58 -67 113 -94 205 -99 74
-4 84 -2 144 27 174 86 219 305 91 448 -58 64 -121 95 -205 100 -49 2 -78 -2
-113 -16z m170 -151 c123 -75 76 -260 -67 -260 -84 0 -141 56 -141 140 0 108
117 175 208 120z"/>
<path d="M896 2259 c-36 -28 -33 -83 4 -110 68 -48 617 -127 1110 -159 223
-14 900 -12 1138 3 170 12 195 16 213 34 29 29 28 81 -2 106 -22 18 -33 19
-164 12 -818 -44 -1616 -1 -2148 115 -113 25 -118 25 -151 -1z"/>
<path d="M3877 1170 c-92 -23 -184 -113 -208 -204 -15 -54 -6 -162 16 -206 24
-48 82 -108 128 -131 124 -65 287 -28 367 82 110 152 56 364 -111 438 -55 25
-140 34 -192 21z m152 -167 c83 -61 77 -194 -12 -239 -100 -52 -207 14 -207
128 0 108 132 174 219 111z"/>
<path d="M896 949 c-32 -25 -36 -77 -7 -103 48 -44 473 -115 901 -151 235 -20
784 -37 815 -25 27 10 55 47 55 72 0 9 -10 29 -22 43 l-23 26 -315 9 c-511 15
-883 54 -1256 130 -118 25 -115 25 -148 -1z"/>
<path d="M3065 829 c-101 -7 -112 -10 -132 -34 -26 -30 -28 -43 -12 -79 18
-38 50 -44 214 -34 187 10 208 14 229 37 26 28 24 80 -4 103 -25 20 -91 22
-295 7z"/>
</g>
</svg>
