<?xml version="1.0" standalone="no"?>
<!DOCTYPE svg PUBLIC "-//W3C//DTD SVG 20010904//EN"
 "http://www.w3.org/TR/2001/REC-SVG-20010904/DTD/svg10.dtd">
<svg version="1.0" xmlns="http://www.w3.org/2000/svg"
 width="512.000000pt" height="512.000000pt" viewBox="0 0 512.000000 512.000000"
 preserveAspectRatio="xMidYMid meet">

<g transform="translate(0.000000,512.000000) scale(0.100000,-0.100000)"
fill="#000000" stroke="none">
<path d="M2425 4473 c-261 -32 -522 -150 -697 -315 -57 -53 -64 -93 -23 -133
40 -41 72 -33 158 38 132 110 268 180 435 224 86 23 116 26 262 26 146 0 176
-3 262 -26 167 -44 303 -114 435 -224 86 -71 118 -79 158 -38 42 41 34 80 -27
138 -115 107 -325 224 -478 267 -148 41 -354 60 -485 43z"/>
<path d="M2405 4146 c-168 -34 -314 -108 -432 -219 -53 -50 -64 -78 -47 -122
9 -23 61 -47 85 -40 12 4 56 35 99 70 143 116 267 160 450 159 183 0 308 -44
451 -160 63 -51 87 -64 114 -64 39 0 75 37 75 76 0 77 -246 241 -430 288 -90
23 -277 29 -365 12z"/>
<path d="M2443 3826 c-79 -20 -175 -71 -232 -124 -60 -57 -68 -96 -26 -137 37
-38 75 -33 132 17 79 68 143 93 243 93 100 0 164 -25 243 -93 74 -65 141 -51
154 31 5 36 3 41 -45 86 -124 116 -307 166 -469 127z"/>
<path d="M2480 3507 c-49 -16 -133 -102 -148 -153 -24 -82 -11 -148 44 -227
42 -60 101 -87 185 -87 86 1 139 25 181 85 83 117 78 226 -17 320 -70 71 -152
91 -245 62z m135 -172 c33 -33 33 -78 -1 -112 -21 -21 -32 -24 -62 -20 -45 8
-61 24 -69 69 -11 74 79 117 132 63z"/>
<path d="M1080 3183 c-262 -40 -528 -177 -717 -371 -334 -341 -449 -846 -297
-1302 59 -174 168 -352 302 -487 449 -455 1166 -509 1676 -126 l84 63 432 0
432 0 78 -59 c504 -379 1203 -337 1656 101 150 145 261 319 324 506 228 681
-135 1405 -815 1627 -177 58 -257 65 -769 65 l-457 0 -24 -25 c-31 -30 -34
-86 -6 -114 18 -18 45 -19 507 -24 442 -4 498 -7 579 -25 455 -101 788 -445
876 -902 16 -84 16 -296 0 -380 -23 -117 -125 -283 -257 -414 -320 -321 -800
-433 -1229 -286 -47 15 -124 49 -171 74 -90 48 -214 134 -214 148 0 5 10 23
23 39 18 26 22 43 22 108 0 67 -4 83 -27 118 -41 62 -94 83 -208 83 -114 0
-167 -21 -208 -83 -24 -36 -27 -52 -30 -139 l-4 -98 -93 0 -94 0 16 37 c23 56
14 150 -19 201 -41 61 -94 82 -208 82 -114 0 -167 -21 -208 -83 -24 -36 -27
-52 -30 -139 -3 -77 0 -104 12 -123 15 -23 14 -25 -22 -52 -96 -74 -217 -137
-337 -176 -111 -37 -164 -47 -284 -57 -344 -28 -689 99 -933 344 -135 134
-227 282 -254 405 -18 87 -19 305 0 402 87 454 428 797 890 896 56 12 176 16
560 20 462 5 489 6 507 24 28 28 25 84 -6 114 l-24 25 -468 -1 c-355 -1 -491
-4 -563 -16z m1234 -1765 c20 -33 -4 -53 -68 -56 -60 -3 -86 8 -86 37 0 32 22
42 84 39 43 -2 62 -8 70 -20z m640 0 c20 -33 -4 -53 -68 -56 -60 -3 -86 8 -86
37 0 32 22 42 84 39 43 -2 62 -8 70 -20z"/>
<path d="M1167 2705 c-85 -32 -162 -111 -192 -195 -10 -28 -15 -81 -15 -155
l0 -113 -127 -4 c-147 -3 -192 -19 -262 -89 -68 -69 -86 -117 -89 -249 -4
-128 6 -164 58 -224 56 -64 100 -76 270 -76 l150 0 0 -149 c0 -163 7 -195 60
-255 17 -18 51 -44 77 -56 41 -19 60 -21 162 -18 133 3 181 21 250 89 70 70
86 116 89 261 l4 126 126 4 c145 3 191 19 261 89 67 67 86 118 86 229 0 111
-19 162 -86 229 -70 70 -116 86 -261 89 l-126 4 -4 126 c-3 108 -6 134 -26
174 -30 60 -90 120 -150 150 -59 29 -195 36 -255 13z m206 -178 c59 -44 67
-76 67 -246 0 -148 1 -153 25 -176 23 -24 28 -25 176 -25 171 0 201 -8 247
-68 39 -51 39 -133 0 -184 -45 -59 -76 -68 -246 -68 -207 0 -196 12 -202 -207
-5 -166 -6 -170 -32 -205 -73 -95 -220 -81 -268 25 -16 35 -20 66 -20 190 0
144 -1 149 -25 172 -23 24 -28 25 -172 25 -124 0 -155 4 -190 20 -106 48 -120
195 -25 268 35 26 39 27 203 32 144 4 171 8 186 23 15 15 19 42 23 186 5 163
6 169 32 203 55 73 152 88 221 35z"/>
<path d="M3727 2705 c-85 -32 -162 -111 -192 -195 -26 -73 -14 -244 21 -313
l15 -28 -38 25 c-56 36 -111 49 -194 44 -166 -8 -288 -127 -297 -290 -9 -158
36 -274 132 -332 40 -25 59 -30 110 -30 178 0 306 67 368 192 19 39 23 63 23
142 0 92 -3 105 -43 183 -2 4 13 -3 34 -15 28 -16 54 -22 98 -22 178 0 307 68
368 192 33 68 33 216 0 284 -30 60 -90 120 -150 150 -59 29 -195 36 -255 13z
m180 -161 c57 -28 87 -77 88 -144 0 -46 -5 -63 -27 -92 -75 -99 -224 -80 -272
34 -54 132 82 263 211 202z m-454 -497 c101 -77 80 -227 -37 -272 -82 -32
-166 5 -200 87 -60 146 112 280 237 185z"/>
<path d="M4207 2225 c-85 -32 -162 -111 -192 -195 -26 -73 -14 -244 21 -313
l15 -28 -38 25 c-56 36 -111 49 -194 44 -166 -8 -288 -127 -297 -290 -9 -158
36 -274 132 -332 40 -25 59 -30 110 -30 178 0 306 67 368 192 19 39 23 63 23
142 0 92 -3 105 -43 183 -2 4 13 -3 34 -15 28 -16 54 -22 98 -22 178 0 307 68
368 192 33 68 33 216 0 284 -30 60 -90 120 -150 150 -59 29 -195 36 -255 13z
m206 -178 c101 -77 81 -227 -37 -272 -82 -32 -166 5 -200 87 -60 146 112 280
237 185z m-506 -463 c57 -28 87 -77 88 -144 0 -46 -5 -63 -27 -92 -75 -99
-224 -80 -272 34 -54 132 82 263 211 202z"/>
</g>
</svg>
