<?xml version="1.0" standalone="no"?>
<!DOCTYPE svg PUBLIC "-//W3C//DTD SVG 20010904//EN"
 "http://www.w3.org/TR/2001/REC-SVG-20010904/DTD/svg10.dtd">
<svg version="1.0" xmlns="http://www.w3.org/2000/svg"
 width="512.000000pt" height="512.000000pt" viewBox="0 0 512.000000 512.000000"
 preserveAspectRatio="xMidYMid meet">

<g transform="translate(0.000000,512.000000) scale(0.100000,-0.100000)"
fill="#000000" stroke="none">
<path d="M2387 5109 c-666 -77 -1200 -557 -1353 -1214 -26 -113 -28 -136 -32
-402 l-4 -283 -51 0 c-223 -1 -431 -157 -500 -375 l-22 -70 0 -1160 0 -1160
22 -70 c58 -184 222 -331 407 -364 41 -8 575 -11 1710 -11 1379 0 1662 3 1717
14 182 39 335 179 392 361 l22 70 0 1160 0 1160 -22 70 c-69 218 -277 374
-499 375 l-52 0 -5 288 c-4 264 -6 296 -30 392 -31 132 -59 212 -108 318 -283
612 -930 978 -1592 901z m418 -194 c260 -46 505 -171 703 -359 127 -122 211
-236 287 -391 115 -234 145 -381 145 -727 l0 -228 -150 0 -150 0 0 204 c0 143
-5 228 -16 286 -77 407 -387 739 -793 848 -86 23 -114 26 -271 26 -157 0 -185
-3 -271 -26 -406 -109 -716 -441 -793 -848 -11 -58 -16 -143 -16 -286 l0 -204
-151 0 -151 0 5 273 c5 293 11 341 68 511 69 206 172 371 338 536 242 241 495
360 861 404 63 8 263 -3 355 -19z m-20 -544 c44 -12 121 -41 170 -65 189 -94
319 -224 410 -411 79 -164 87 -202 92 -462 l5 -223 -902 0 -902 0 5 223 c5
255 13 296 86 452 125 263 362 445 654 501 98 18 279 11 382 -15z m1508 -1365
c62 -24 151 -106 185 -170 l27 -51 3 -262 3 -263 -193 0 c-219 0 -261 -8 -283
-50 -19 -36 -19 -54 0 -89 22 -44 58 -51 276 -51 l199 0 0 -185 0 -185 -199 0
c-218 0 -254 -7 -276 -51 -19 -35 -19 -53 0 -88 22 -44 58 -51 276 -51 l199 0
0 -185 0 -185 -207 0 c-189 0 -211 -2 -240 -20 -52 -32 -54 -108 -4 -147 11
-9 78 -12 234 -13 l218 0 -3 -268 -3 -267 -27 -50 c-36 -68 -101 -128 -173
-162 l-60 -28 -1685 0 -1685 0 -60 28 c-72 34 -137 94 -173 162 l-27 50 -3
268 -3 267 218 0 c156 1 223 4 234 13 50 39 48 115 -4 147 -29 18 -51 20 -239
20 l-208 0 0 185 0 185 199 0 c119 0 211 4 230 11 31 11 61 52 61 84 0 32 -30
73 -61 84 -19 7 -111 11 -230 11 l-199 0 0 185 0 185 199 0 c218 0 254 7 276
51 19 35 19 53 0 89 -22 42 -64 50 -283 50 l-193 0 3 263 c3 261 3 262 30 312
29 55 112 139 155 157 93 37 65 37 1783 35 1596 -2 1667 -3 1713 -21z"/>
<path d="M2429 2351 c-106 -34 -211 -128 -256 -229 -64 -144 -37 -330 65 -452
l30 -35 -119 -352 c-117 -344 -119 -353 -105 -387 8 -19 23 -39 34 -45 29 -15
935 -15 964 0 11 6 26 26 34 45 14 34 12 43 -105 387 l-119 352 30 35 c103
124 129 314 62 457 -32 67 -108 152 -168 187 -96 56 -239 72 -347 37z m212
-175 c204 -73 212 -369 12 -453 -42 -17 -144 -17 -186 0 -127 54 -183 210
-121 335 53 108 182 159 295 118z m-81 -651 c25 0 65 3 89 5 l45 5 88 -257 87
-258 -309 0 -309 0 79 233 c108 321 92 289 142 280 24 -5 63 -8 88 -8z"/>
</g>
</svg>
